<svg xmlns="http://www.w3.org/2000/svg" width="1498" height="294" fill="none"><path d="M1119.94 218.678c7.99 6.125 16.11 9.184 24.36 9.184 8.24 0 16.48-3.123 24.73-9.371 8.24-6.24 12.37-15.487 12.37-27.732 0-12.239-3.88-21.363-11.62-27.36-7.75-5.995-16.12-8.993-25.11-8.993-8.99 0-17.37 3.125-25.11 9.369-7.75 6.248-11.62 15.432-11.62 27.547 0 12.118 3.99 21.238 12 27.356zm-46.85-100.999c20.99-19.49 44.97-29.232 71.96-29.232 26.98 0 50.83 9.684 71.57 29.043 20.74 19.366 31.11 44.036 31.11 74.018 0 20.743-5.37 39.162-16.11 55.279-10.75 16.113-23.8 27.983-39.17 35.604-15.36 7.624-31.29 11.428-47.78 11.428-16.49 0-32.48-4.059-47.97-12.179-15.49-8.116-28.55-20.108-39.16-35.98-10.63-15.86-15.93-33.786-15.93-53.778 0-29.979 10.49-54.716 31.48-74.203zM780.927 218.678c7.994 6.125 16.114 9.184 24.362 9.184 8.242 0 16.486-3.123 24.733-9.371 8.244-6.24 12.369-15.487 12.369-27.732 0-12.239-3.88-21.363-11.62-27.36-7.746-5.995-16.117-8.993-25.11-8.993-8.992 0-17.367 3.125-25.111 9.369-7.747 6.248-11.615 15.432-11.615 27.547 0 12.118 3.991 21.238 11.992 27.356zm-46.845-100.999c20.985-19.49 44.969-29.232 71.956-29.232 26.983 0 50.836 9.684 71.579 29.043 20.736 19.366 31.105 44.036 31.105 74.018 0 20.743-5.375 39.162-16.113 55.279-10.747 16.113-23.799 27.983-39.166 35.604-15.364 7.624-31.292 11.428-47.782 11.428-16.49 0-32.48-4.059-47.972-12.179-15.491-8.116-28.546-20.108-39.162-35.98-10.622-15.86-15.926-33.786-15.926-53.778 0-29.979 10.492-54.716 31.481-74.203zM943.777 0h65.583v290.037h-65.583V0zM1497.18 290.038L1391.2 184.052l95.6-95.605h-92.75l-48.16 48.167V0h-65.59v290.038h65.59v-58.547l58.54 58.547h92.75z" fill="#12C0DD"/><path d="M361.363 92.942c-43.507 0-55.563 23.988-55.563 23.988V92.942h-64.836v197.096h31.323c.438.005.833.036 1.282.036.456 0 .855-.031 1.3-.036h31.68v-98.907c0-9.743 3.058-17.613 9.182-23.607 6.12-5.998 14.113-8.997 23.986-8.997 9.866 0 17.736 2.876 23.61 8.62 5.866 5.752 8.806 13.745 8.806 23.984v98.907h31.93c.362.004.681.036 1.05.036.458 0 .856-.031 1.303-.036h31.677v-98.53c0-55.273-24.849-98.566-76.73-98.566zM588.469 92.942c-43.507 0-55.563 23.988-55.563 23.988V92.942H468.07v197.096h31.323c.439.005.833.036 1.281.036.458 0 .855-.031 1.302-.036h31.68v-98.907c0-9.743 3.057-17.613 9.181-23.607 6.12-5.998 14.113-8.997 23.987-8.997 9.865 0 17.736 2.876 23.609 8.62 5.867 5.752 8.807 13.745 8.807 23.984v98.907h31.929c.363.004.681.036 1.051.036.457 0 .856-.031 1.301-.036H665.2v-98.53c0-55.273-24.85-98.566-76.731-98.566z" fill="#fff"/><path d="M768.935 191.321L768.185 0h-44.252v.001L675.42 75.524h27.18v115.797h66.335z" fill="#12C0DD"/><path d="M768.935 191.321l-.376-95.849c-12.272 4.869-23.768 12.261-34.477 22.207-20.858 19.364-31.339 43.918-31.47 73.642h66.323z" fill="#037893"/><path d="M127.421 218.491c-8.246 6.248-16.49 9.369-24.733 9.369-8.248 0-16.368-3.058-24.361-9.182-8.002-6.118-11.992-15.238-11.992-27.356 0-12.116 3.868-21.299 11.614-27.547 7.744-6.244 16.118-9.369 25.111-9.369 8.993 0 17.364 2.998 25.111 8.993 7.74 5.997 11.62 15.121 11.62 27.359 0 12.246-4.127 21.493-12.37 27.733zm78.7 71.547v-98.53c0-29.982-10.369-54.653-31.105-74.018-20.743-19.36-44.596-29.043-71.579-29.043-26.986 0-50.97 9.742-71.956 29.232C10.492 137.166 0 161.903 0 191.88c0 19.994 5.304 37.92 15.927 53.78 10.616 15.872 23.67 27.864 39.161 35.98 15.492 8.12 31.483 12.179 47.972 12.179 16.491 0 32.419-3.804 47.783-11.429a90.999 90.999 0 007.69-4.302v11.95h47.588z" fill="#fff"/></svg>